<svg xmlns="http://www.w3.org/2000/svg" width="21.719" height="17.62" viewBox="0 0 21.719 17.62">
  <defs>
    <style>
      .cls-1 {
        fill: #0d2a96;
        fill-rule: evenodd;
      }
    </style>
  </defs>
  <path id="twitter" class="cls-1" d="M978.306,1391.2a6.983,6.983,0,0,1-1.332.26,4.911,4.911,0,0,0,1.961-2.43q-0.629.33-1.369,0.63a6.768,6.768,0,0,1-1.48.4,5.162,5.162,0,0,0-1.442-1.01,4.143,4.143,0,0,0-1.813-.39,4.28,4.28,0,0,0-1.721.35,4.473,4.473,0,0,0-1.406.96,4.351,4.351,0,0,0-.961,1.44,4.4,4.4,0,0,0-.352,1.75,3.856,3.856,0,0,0,.111.95,12,12,0,0,1-5.143-1.34,12.537,12.537,0,0,1-4.032-3.3,4.56,4.56,0,0,0-.592,2.25,4.417,4.417,0,0,0,.518,2.14,4,4,0,0,0,1.48,1.54,4.321,4.321,0,0,1-1.129-.14,5.706,5.706,0,0,1-.943-0.37v0.03a4.188,4.188,0,0,0,1.017,2.82,4.508,4.508,0,0,0,2.572,1.53,4.217,4.217,0,0,1-.574.11,3.849,3.849,0,0,1-.61.04,3.583,3.583,0,0,1-.814-0.11,4.271,4.271,0,0,0,1.535,2.19,4.376,4.376,0,0,0,2.608.91,8.52,8.52,0,0,1-5.512,1.87h-0.555a4.485,4.485,0,0,1-.518-0.03,13.659,13.659,0,0,0,3.237,1.49,11.968,11.968,0,0,0,3.607.53,12.27,12.27,0,0,0,5.42-1.14,12.542,12.542,0,0,0,3.959-2.96,12.857,12.857,0,0,0,2.442-4.09,12.992,12.992,0,0,0,.832-4.48v-0.52a10.22,10.22,0,0,0,2.22-2.32A10.187,10.187,0,0,1,978.306,1391.2Z" transform="translate(-957.812 -1388.66)"/>
</svg>
