<svg xmlns="http://www.w3.org/2000/svg" width="33.875" height="33.719" viewBox="0 0 33.875 33.719">
  <defs>
    <style>
      .cls-1 {
        fill: #fff;
        fill-rule: evenodd;
      }
    </style>
  </defs>
  <path id="twitter" class="cls-1" d="M71.973,421.377a1.826,1.826,0,0,1,1.831-1.823,1.8,1.8,0,0,1,1.831,1.823V423.2h6.311a1.847,1.847,0,0,1,0,3.694H75.634V427.9a2.6,2.6,0,0,0,2.312,2.686h4.046a1.757,1.757,0,0,1,1.782,1.824,1.826,1.826,0,0,1-1.831,1.823H77.85a6.127,6.127,0,0,1-5.877-6.333v-6.525h0ZM77.9,443.734a16.864,16.864,0,1,0-16.957-16.84A16.865,16.865,0,0,0,77.9,443.734h0Z" transform="translate(-60.938 -410)"/>
</svg>
