<svg xmlns="http://www.w3.org/2000/svg" width="24.032" height="23.91" viewBox="0 0 24.032 23.91">
  <defs>
    <style>
      .cls-1 {
        fill: #2f2f2f;
        fill-rule: evenodd;
      }
    </style>
  </defs>
  <path id="twitter" class="cls-1" d="M649.989,5300.55a1.3,1.3,0,0,1,1.3-1.29,1.274,1.274,0,0,1,1.3,1.29v1.29h4.474a1.31,1.31,0,0,1,0,2.62h-4.474v0.72a1.841,1.841,0,0,0,1.64,1.9h2.869a1.242,1.242,0,0,1,1.263,1.29,1.3,1.3,0,0,1-1.3,1.3h-2.9a4.346,4.346,0,0,1-4.167-4.49v-4.63h0Zm4.2,15.85a11.955,11.955,0,1,0-12.022-11.94,11.958,11.958,0,0,0,12.022,11.94h0Z" transform="translate(-642.156 -5292.5)"/>
</svg>
